<svg xmlns="http://www.w3.org/2000/svg" xmlns:xlink="http://www.w3.org/1999/xlink" x="0px" y="0px" width="48px" height="384px" viewBox="0 0 48 384"><g  transform="translate(0, 0)">
<path fill="#BFDEE0" d="M46,47H2c-0.55225,0-1-0.44727-1-1V27c0-0.55273,0.44775-1,1-1h44c0.55225,0,1,0.44727,1,1v19&#10;&#9;C47,46.55273,46.55225,47,46,47z"/>
<path fill="#444444" d="M39,34H23c-0.55225,0-1-0.44727-1-1s0.44775-1,1-1h16c0.55225,0,1,0.44727,1,1S39.55225,34,39,34z"/>
<path fill="#444444" d="M39,41H9c-0.55225,0-1-0.44727-1-1s0.44775-1,1-1h30c0.55225,0,1,0.44727,1,1S39.55225,41,39,41z"/>
<path fill="#444444" d="M27.70703,20.94678l-4-4c-0.39062-0.39062-1.02344-0.39062-1.41406,0l-12,12&#10;&#9;c-1.24652,1.24652-1.43689,3.13971-0.6015,4.6015l-1.3985,1.3985c-0.39062,0.39062-0.39062,1.02344,0,1.41406&#10;&#9;C8.48828,36.55615,8.74414,36.65381,9,36.65381s0.51172-0.09766,0.70703-0.29297l1.39838-1.39838&#10;&#9;C11.69196,35.29773,12.3429,35.48047,13,35.48047c0.98047,0,1.96094-0.37305,2.70703-1.11963l12-12&#10;&#9;C28.09766,21.97021,28.09766,21.3374,27.70703,20.94678z"/>
<path fill="#EFD358" d="M36,23.65381c-0.25586,0-0.51172-0.09766-0.70703-0.29297c-0.39062-0.39062-0.39062-1.02344,0-1.41406&#10;&#9;l7.29297-7.29297l-2.29297-2.29297c-0.39062-0.39062-0.39062-1.02344,0-1.41406s1.02344-0.39062,1.41406,0l3,3&#10;&#9;c0.39062,0.39062,0.39062,1.02344,0,1.41406l-8,8C36.51172,23.55615,36.25586,23.65381,36,23.65381z"/>
<path fill="#636363" d="M41.70703,2.94678c-2.5957-2.5957-6.81836-2.5957-9.41406,0l-12,12&#10;&#9;c-0.39062,0.39062-0.39062,1.02344,0,1.41406l8,8c0.19531,0.19531,0.45117,0.29297,0.70703,0.29297s0.51172-0.09766,0.70703-0.29297&#10;&#9;l12-12C44.30273,9.76562,44.30273,5.54199,41.70703,2.94678z"/>
</g><g  transform="translate(0, 48)"><path fill="#007AC6" d="M44,7H4c-1.657,0-3,1.343-3,3v28c0,1.657,1.343,3,3,3h40c1.657,0,3-1.343,3-3V10C47,8.343,45.657,7,44,7z"/>
<path fill="#FFFFFF" d="M10.533,24.429h2.33l-1.165-2.857L10.533,24.429z M43,19h-5.969l-1.456,1.571L34.264,19H21.598l-1.165,2.571&#10;&#9;L19.268,19h-5.096v1.143L13.59,19H9.222L5,29h5.096l0.582-1.571h1.456L12.716,29h5.678v-1.143L18.831,29h2.912l0.437-1.286V29&#10;&#9;h11.648l1.456-1.571L36.594,29h5.969l-3.785-5L43,19z M25.383,27.571h-1.602V22l-2.475,5.571h-1.456L17.375,22v5.571h-3.349&#10;&#9;L13.444,26H9.95l-0.582,1.571H7.475l3.057-7.143h2.475l2.766,6.714v-6.714h2.766l2.184,4.857l2.038-4.857h2.766v7.143H25.383z&#10;&#9; M39.797,27.571h-2.184l-1.893-2.429l-2.184,2.429h-6.552v-7.143h6.697l2.038,2.286l2.184-2.286h2.038L36.739,24L39.797,27.571z&#10;&#9; M28.586,21.857v1.286h3.64v1.429h-3.64V26h4.077l1.893-2.143l-1.747-2H28.586z"/></g><g  transform="translate(0, 96)"><path fill="#0068AC" d="M44,7H4c-1.657,0-3,1.343-3,3v28c0,1.657,1.343,3,3,3h40c1.657,0,3-1.343,3-3V10C47,8.343,45.657,7,44,7z"/>
<path fill="#FFFFFF" d="M21,20.142v7.716c1.721-0.447,3-2,3-3.858S22.721,20.589,21,20.142z"/>
<path fill="#FFFFFF" d="M28,16h-8c-4.418,0-8,3.582-8,8s3.582,8,8,8h8c4.418,0,8-3.582,8-8S32.418,16,28,16z M20,30&#10;&#9;c-3.309,0-6-2.691-6-6s2.691-6,6-6s6,2.691,6,6S23.309,30,20,30z"/>
<path fill="#FFFFFF" d="M19,20.142c-1.721,0.447-3,2-3,3.858s1.279,3.411,3,3.858V20.142z"/></g><g  transform="translate(0, 144)"><path fill="#E6E6E6" d="M47,23.807V10c0-1.657-1.343-3-3-3H4c-1.657,0-3,1.343-3,3v28c0,1.657,1.343,3,3,3h10.589&#10;&#9;C30.229,38.811,43.003,30.094,47,23.807z"/>
<path fill="#E6E6E6" d="M47,38V23.807C43.003,30.094,30.229,38.811,14.589,41H44C45.657,41,47,39.657,47,38z"/>
<path fill="#FA7000" d="M47,38V23.807C43.003,30.094,30.229,38.811,14.589,41H44C45.657,41,47,39.657,47,38z"/>
<path fill="#FA7000" d="M25.029,21.013c-1.69,0-3.062,1.32-3.062,2.951c0,1.734,1.312,3.028,3.062,3.028&#10;&#9;c1.708,0,3.054-1.313,3.054-2.995C28.084,22.325,26.747,21.013,25.029,21.013z"/>
<path fill="#444444" d="M7.646,21.121H6v5.743h1.636c0.871,0,1.499-0.207,2.05-0.664c0.654-0.541,1.043-1.359,1.043-2.206&#10;&#9;C10.728,22.298,9.462,21.121,7.646,21.121z M8.956,25.434c-0.356,0.318-0.81,0.457-1.535,0.457H7.121v-3.798h0.301&#10;&#9;c0.725,0,1.161,0.13,1.535,0.464c0.385,0.345,0.617,0.878,0.617,1.429C9.573,24.539,9.342,25.091,8.956,25.434z"/>
<rect x="11.245" y="21.121" fill="#444444" width="1.116" height="5.743"/>
<path fill="#444444" d="M15.102,23.322c-0.674-0.247-0.871-0.412-0.871-0.722c0-0.361,0.352-0.635,0.836-0.635&#10;&#9;c0.335,0,0.612,0.134,0.906,0.462l0.583-0.764c-0.481-0.424-1.058-0.638-1.686-0.638c-1.016,0-1.791,0.707-1.791,1.642&#10;&#9;c0,0.794,0.36,1.197,1.411,1.579c0.439,0.153,0.662,0.257,0.776,0.328c0.224,0.145,0.335,0.352,0.335,0.592&#10;&#9;c0,0.467-0.37,0.811-0.871,0.811c-0.533,0-0.964-0.267-1.222-0.768l-0.722,0.7c0.516,0.756,1.135,1.094,1.988,1.094&#10;&#9;c1.163,0,1.982-0.778,1.982-1.887C16.757,24.202,16.377,23.788,15.102,23.322z"/>
<path fill="#444444" d="M17.108,23.994c0,1.689,1.326,2.998,3.032,2.998c0.481,0,0.894-0.095,1.402-0.335v-1.32&#10;&#9;c-0.449,0.451-0.843,0.629-1.353,0.629c-1.128,0-1.927-0.816-1.927-1.98c0-1.1,0.825-1.972,1.877-1.972&#10;&#9;c0.531,0,0.937,0.188,1.402,0.646v-1.318c-0.491-0.248-0.894-0.351-1.379-0.351C18.467,20.991,17.108,22.325,17.108,23.994z"/>
<polygon fill="#444444" points="30.617,24.977 29.086,21.121 27.864,21.121 30.299,27.009 30.9,27.009 33.382,21.121 32.17,21.121 &#10;&#9;"/>
<polygon fill="#444444" points="33.89,26.864 37.066,26.864 37.066,25.891 35.011,25.891 35.011,24.341 36.988,24.341 &#10;&#9;36.988,23.368 35.011,23.368 35.011,22.093 37.066,22.093 37.066,21.121 33.89,21.121 "/>
<path fill="#444444" d="M41.5,22.815c0-1.076-0.738-1.695-2.031-1.695h-1.664v5.743h1.123v-2.309h0.146l1.547,2.309H42l-1.807-2.421&#10;&#9;C41.037,24.271,41.5,23.694,41.5,22.815z M39.254,23.762h-0.325v-1.737h0.343c0.7,0,1.075,0.294,1.075,0.853&#10;&#9;C40.347,23.452,39.972,23.762,39.254,23.762z"/></g><g  transform="translate(0, 192)"><path fill="#E6E6E6" d="M44,7H4c-1.657,0-3,1.343-3,3v28c0,1.657,1.343,3,3,3h40c1.657,0,3-1.343,3-3V10C47,8.343,45.657,7,44,7z"/>
<rect x="10" y="20" fill="#FFFFFF" width="8" height="9"/>
<rect x="20" y="20" fill="#FFFFFF" width="8" height="9"/>
<rect x="30" y="20" fill="#FFFFFF" width="8" height="9"/>
<path fill="#269732" d="M31.63,24.405c0.687,0,1.196,0,1.882,0c0.537,0,0.845,0.288,0.933,0.674&#10;&#9;c0.015,0.065,0.023,0.133,0.023,0.205c0,0.072-0.008,0.14-0.023,0.206c-0.089,0.392-0.414,0.674-0.901,0.674c-0.68,0-1.25,0-1.914,0&#10;&#9;L31.63,24.405L31.63,24.405z M34.22,22.415c0.013,0.059,0.02,0.122,0.02,0.187c0,0.066-0.007,0.128-0.02,0.187&#10;&#9;c-0.1,0.455-0.463,0.624-0.933,0.624c-0.554,0-1.05,0-1.657,0v-1.623c0.845,0,0.833,0,1.689,0&#10;&#9;C33.849,21.791,34.139,22.047,34.22,22.415L34.22,22.415z M38,14v17c0,1.657-1.343,3-3,3h-5v-6.795c0.022,0,5.163,0,5.185,0&#10;&#9;c1.127-0.009,2.105-0.582,2.105-1.666c0-0.072-0.005-0.141-0.014-0.209c-0.113-0.814-0.882-1.322-1.896-1.4l0-0.039&#10;&#9;c1.012-0.157,1.518-0.802,1.518-1.53c0-0.533-0.249-0.966-0.716-1.243c-0.56-0.331-1.194-0.323-1.769-0.323&#10;&#9;c-0.866,0-3.549,0-4.413,0L30,17c0-1.657,1.343-3,3-3H38z"/>
<path fill="#034D9B" d="M10,25.566V17c0-1.657,1.343-3,3-3h5v17c0,1.657-1.34,3-2.996,3c-1.257,0-2.918,0-5.004,0v-7.025&#10;&#9;c1.217,0.335,4.156,0.708,5.882,0.052c1.087-0.411,1.654-1.187,1.654-2.364v-3.867h-2.867v3.867c0,0.781-0.43,1.383-1.196,1.58&#10;&#9;C12.485,26.498,11.036,26.067,10,25.566z"/>
<path fill="#AD1031" d="M20,21.698V17c0-1.657,1.343-3,3-3h5v17c0,1.657-1.342,3-2.998,3c-1.236,0-2.885,0-5.002,0v-7.696&#10;&#9;c0.797,0.684,1.921,0.943,2.959,1.041c1.339,0.118,2.788,0.014,4.336-0.369v-1.41c-0.905,0.45-2.031,0.855-3.308,0.727&#10;&#9;c-1.402-0.163-2.101-1.04-2.101-2.292c0-1.317,0.775-2.16,2.133-2.297c1.089-0.108,2.252,0.217,3.276,0.731v-1.411&#10;&#9;c-1.434-0.354-2.679-0.448-3.854-0.4C22.245,20.682,20.906,20.92,20,21.698z"/></g><g  transform="translate(0, 240)"><path fill="#003564" d="M44,7H4c-1.657,0-3,1.343-3,3v28c0,1.657,1.343,3,3,3h40c1.657,0,3-1.343,3-3V10C47,8.343,45.657,7,44,7z"/>
<circle fill="#2285DD" cx="19" cy="24" r="8"/>
<path fill="#376BD1" d="M24,30.24c0.093-0.075,0.177-0.161,0.267-0.24h-0.535C23.823,30.079,23.907,30.165,24,30.24z"/>
<path fill="#F01524" d="M29,16c-2.525,0-4.773,1.173-6.24,3h2.48c0.251,0.313,0.47,0.651,0.673,1h-3.827h-0.008&#10;&#9;c-0.186,0.321-0.352,0.653-0.492,1h0.009h4.809c0.132,0.324,0.246,0.656,0.335,1h-5.477c-0.084,0.326-0.151,0.659-0.193,1h5.865&#10;&#9;C26.975,23.328,27,23.661,27,24h-6c0,0.339,0.028,0.672,0.069,1h5.865c-0.043,0.341-0.111,0.674-0.195,1h-5.477&#10;&#9;c0.088,0.342,0.194,0.677,0.325,1h0.009h4.809c-0.141,0.346-0.305,0.68-0.491,1h-3.827h-0.008c0.203,0.351,0.429,0.686,0.681,1h2.48&#10;&#9;c-0.292,0.363-0.623,0.693-0.973,1h-0.535h-0.012c1.409,1.241,3.254,2,5.279,2c4.418,0,8-3.582,8-8S33.418,16,29,16z"/></g><g  transform="translate(0, 288)"><path fill="#003564" d="M44,7H4c-1.657,0-3,1.343-3,3v28c0,1.657,1.343,3,3,3h40c1.657,0,3-1.343,3-3V10C47,8.343,45.657,7,44,7z"/>
<circle fill="#F01524" cx="19" cy="24" r="8"/>
<path fill="#376BD1" d="M24,30.24c0.093-0.075,0.177-0.161,0.267-0.24h-0.535C23.823,30.079,23.907,30.165,24,30.24z"/>
<path fill="#FEB415" d="M29,16c-2.525,0-4.773,1.173-6.24,3h2.48c0.251,0.313,0.47,0.651,0.673,1h-3.827h-0.008&#10;&#9;c-0.186,0.321-0.352,0.653-0.492,1h0.009h4.809c0.132,0.324,0.246,0.656,0.335,1h-5.477c-0.084,0.326-0.151,0.659-0.193,1h5.865&#10;&#9;C26.975,23.328,27,23.661,27,24h-6c0,0.339,0.028,0.672,0.069,1h5.865c-0.043,0.341-0.111,0.674-0.195,1h-5.477&#10;&#9;c0.088,0.342,0.194,0.677,0.325,1h0.009h4.809c-0.141,0.346-0.305,0.68-0.491,1h-3.827h-0.008c0.203,0.351,0.429,0.686,0.681,1h2.48&#10;&#9;c-0.292,0.363-0.623,0.693-0.973,1h-0.535h-0.012c1.409,1.241,3.254,2,5.279,2c4.418,0,8-3.582,8-8S33.418,16,29,16z"/></g><g  transform="translate(0, 336)"><rect x="1" y="14" fill="#E6E6E6" width="46" height="19"/>
<path fill="#E79800" d="M4,41h40c1.657,0,3-1.343,3-3v-5H1v5C1,39.657,2.343,41,4,41z"/>
<path fill="#1A1876" d="M44,7H4c-1.657,0-3,1.343-3,3v5h46v-5C47,8.343,45.657,7,44,7z"/>
<polygon fill="#1A1876" points="19.238,28.8 21.847,28.8 23.48,19.224 20.87,19.224 "/>
<path fill="#1A1876" d="M28.743,23.069c-0.912-0.443-1.471-0.739-1.465-1.187c0-0.398,0.473-0.824,1.495-0.824&#10;&#9;c0.836-0.013,1.51,0.157,2.188,0.477l0.354-2.076c-0.517-0.194-1.327-0.402-2.339-0.402c-2.579,0-4.396,1.299-4.411,3.16&#10;&#9;c-0.015,1.376,1.297,2.144,2.287,2.602c1.016,0.469,1.358,0.769,1.353,1.188c-0.006,0.642-0.811,0.935-1.562,0.935&#10;&#9;c-1.158,0-1.742-0.179-2.793-0.655l-0.366,2.144c0.61,0.267,1.737,0.499,2.908,0.511c2.744,0,4.525-1.284,4.545-3.272&#10;&#9;C30.944,24.581,30.249,23.752,28.743,23.069z"/>
<path fill="#1A1876" d="M38.007,19.233H35.99c-0.625,0-1.092,0.171-1.367,0.794l-3.876,8.776h2.741c0,0,0.448-1.18,0.55-1.439&#10;&#9;c0.3,0,2.962,0.004,3.343,0.004c0.078,0.335,0.318,1.435,0.318,1.435h2.422L38.007,19.233z M34.789,25.406&#10;&#9;c0.108-0.276,1.173-3.011,1.386-3.591c0.353,1.651,0.009,0.049,0.781,3.591H34.789z"/>
<path fill="#1A1876" d="M17.049,19.231l-2.556,6.53l-0.272-1.327l-0.915-4.401c-0.158-0.606-0.616-0.787-1.183-0.808H7.913&#10;&#9;L7.88,19.424c1.024,0.248,1.939,0.606,2.742,1.05l2.321,8.317l2.762-0.003l4.109-9.558H17.049z"/></g></svg>